<svg width="64" height="64" viewBox="0 0 64 64" fill="none" xmlns="http://www.w3.org/2000/svg">
<rect width="64" height="64" rx="32" fill="black"/>
<path d="M19.716 43.344C19.324 43.456 18.9507 43.512 18.596 43.512C18.2413 43.5307 17.8773 43.5493 17.504 43.568C17.1493 43.5867 16.6547 43.596 16.02 43.596C15.3853 43.596 14.4333 43.5773 13.164 43.54C12.8653 43.5587 12.5667 43.568 12.268 43.568C11.9693 43.568 11.6893 43.512 11.428 43.4C10.8493 43.1573 10.4573 42.5973 10.252 41.72C10.1587 41.3093 10.056 41.02 9.944 40.852C9.81333 40.684 9.71067 40.5253 9.636 40.376C9.44933 40.0773 9.468 39.5827 9.692 38.892C9.89733 38.2013 10.168 37.352 10.504 36.344C10.84 35.3173 11.2227 34.2347 11.652 33.096C12.66 30.3893 13.5653 28.2427 14.368 26.656C14.6853 25.9467 14.956 25.3307 15.18 24.808C15.4227 24.2853 15.6373 23.8373 15.824 23.464C16.0107 23.072 16.104 22.8667 16.104 22.848C16.2907 22.1387 17.0093 21.5413 18.26 21.056C19.4733 20.552 20.5747 20.4213 21.564 20.664C22.6653 20.944 23.1507 21.672 23.02 22.848C22.7587 24.0053 22.3667 25.1627 21.844 26.32C21.34 27.4773 20.7613 28.6907 20.108 29.96C19.4547 31.2293 18.7453 32.5733 17.98 33.992C17.2147 35.4107 16.4587 36.9507 15.712 38.612C15.6933 38.6867 15.7307 38.752 15.824 38.808C16.0667 38.7893 16.4027 38.7147 16.832 38.584C17.28 38.4533 17.7373 38.3413 18.204 38.248C18.6893 38.136 19.1653 38.08 19.632 38.08C20.0987 38.08 20.4907 38.2013 20.808 38.444C20.7893 38.78 20.8733 39.0507 21.06 39.256C21.2467 39.4427 21.4333 39.6293 21.62 39.816C22.0867 40.3013 22.124 40.9453 21.732 41.748C21.3587 42.532 20.6867 43.064 19.716 43.344ZM29.3983 38.472C30.481 38.584 31.2836 38.64 31.8063 38.64C32.3476 38.64 33.1596 38.5653 34.2423 38.416C34.5783 38.528 34.7743 38.668 34.8303 38.836C34.8863 39.004 34.905 39.1813 34.8863 39.368C34.8676 39.536 34.877 39.704 34.9143 39.872C34.9516 40.04 35.129 40.18 35.4463 40.292C35.6143 40.348 35.661 40.516 35.5863 40.796C35.5303 41.0573 35.381 41.3467 35.1383 41.664C34.5223 42.4667 33.7943 43.0267 32.9543 43.344C31.6103 43.68 30.5556 43.876 29.7903 43.932C28.521 44.0253 27.1396 43.9787 25.6463 43.792C24.0036 43.4933 23.2103 42.812 23.2663 41.748C23.2663 37.828 24.125 33.8893 25.8423 29.932C26.4023 28.644 27.037 27.2907 27.7463 25.872C27.8956 25.5733 27.9796 25.2373 27.9983 24.864C28.0356 24.4907 28.0636 24.1267 28.0823 23.772C28.101 23.4173 28.157 23.1 28.2503 22.82C28.3436 22.54 28.5396 22.344 28.8383 22.232C32.721 20.6827 35.7916 20.0853 38.0503 20.44C38.8343 20.4587 39.3476 20.7293 39.5903 21.252C39.8516 21.756 39.8796 22.3253 39.6743 22.96C39.4876 23.5947 39.105 24.192 38.5263 24.752C37.9663 25.312 37.257 25.6573 36.3983 25.788C35.297 26.1053 34.625 26.32 34.3823 26.432C33.9156 26.656 33.5796 26.9547 33.3743 27.328C33.113 27.7387 32.8703 28.1307 32.6463 28.504C32.4223 28.8773 32.2636 29.2787 32.1703 29.708L32.0583 30.324C32.413 30.492 32.8423 30.548 33.3463 30.492C33.869 30.4173 34.345 30.352 34.7743 30.296C35.2223 30.2213 35.577 30.212 35.8383 30.268C36.1183 30.324 36.1743 30.604 36.0063 31.108C35.857 31.5933 35.5676 32.144 35.1383 32.76C34.7276 33.376 34.1396 33.824 33.3743 34.104C32.889 34.1973 32.553 34.272 32.3663 34.328C32.1983 34.3653 32.0676 34.3933 31.9743 34.412C31.8436 34.4307 31.4703 34.4587 30.8543 34.496C29.977 35.9893 29.445 37.1467 29.2583 37.968C29.1836 38.304 29.2303 38.472 29.3983 38.472ZM44.0819 38.472C45.1646 38.584 45.9672 38.64 46.4899 38.64C47.0312 38.64 47.8432 38.5653 48.9259 38.416C49.2619 38.528 49.4579 38.668 49.5139 38.836C49.5699 39.004 49.5886 39.1813 49.5699 39.368C49.5512 39.536 49.5606 39.704 49.5979 39.872C49.6352 40.04 49.8126 40.18 50.1299 40.292C50.2979 40.348 50.3446 40.516 50.2699 40.796C50.2139 41.0573 50.0646 41.3467 49.8219 41.664C49.2059 42.4667 48.4779 43.0267 47.6379 43.344C46.2939 43.68 45.2392 43.876 44.4739 43.932C43.2046 44.0253 41.8232 43.9787 40.3299 43.792C38.6872 43.4933 37.8939 42.812 37.9499 41.748C37.9499 37.828 38.8086 33.8893 40.5259 29.932C41.0859 28.644 41.7206 27.2907 42.4299 25.872C42.5792 25.5733 42.6632 25.2373 42.6819 24.864C42.7192 24.4907 42.7472 24.1267 42.7659 23.772C42.7846 23.4173 42.8406 23.1 42.9339 22.82C43.0272 22.54 43.2232 22.344 43.5219 22.232C47.4046 20.6827 50.4752 20.0853 52.7339 20.44C53.5179 20.4587 54.0312 20.7293 54.2739 21.252C54.5352 21.756 54.5632 22.3253 54.3579 22.96C54.1712 23.5947 53.7886 24.192 53.2099 24.752C52.6499 25.312 51.9406 25.6573 51.0819 25.788C49.9806 26.1053 49.3086 26.32 49.0659 26.432C48.5992 26.656 48.2632 26.9547 48.0579 27.328C47.7966 27.7387 47.5539 28.1307 47.3299 28.504C47.1059 28.8773 46.9472 29.2787 46.8539 29.708L46.7419 30.324C47.0966 30.492 47.5259 30.548 48.0299 30.492C48.5526 30.4173 49.0286 30.352 49.4579 30.296C49.9059 30.2213 50.2606 30.212 50.5219 30.268C50.8019 30.324 50.8579 30.604 50.6899 31.108C50.5406 31.5933 50.2512 32.144 49.8219 32.76C49.4112 33.376 48.8232 33.824 48.0579 34.104C47.5726 34.1973 47.2366 34.272 47.0499 34.328C46.8819 34.3653 46.7512 34.3933 46.6579 34.412C46.5272 34.4307 46.1539 34.4587 45.5379 34.496C44.6606 35.9893 44.1286 37.1467 43.9419 37.968C43.8672 38.304 43.9139 38.472 44.0819 38.472Z" fill="white"/>
</svg>
