<svg width="26" height="44" viewBox="0 0 26 44" fill="none" xmlns="http://www.w3.org/2000/svg">
<path d="M9.03194 39.576C7.33594 39.416 5.73594 39.16 4.23194 38.808C2.75994 38.456 1.52794 38.008 0.535938 37.464V29.784C2.26394 30.68 4.05594 31.352 5.91194 31.8C7.79994 32.248 9.59194 32.472 11.2879 32.472C12.8239 32.472 13.9439 32.248 14.6479 31.8C15.3839 31.32 15.7519 30.632 15.7519 29.736C15.7519 29.032 15.5599 28.456 15.1759 28.008C14.7919 27.56 14.1999 27.144 13.3999 26.76C12.6319 26.344 11.3679 25.768 9.60794 25.032C6.50394 23.72 4.24794 22.248 2.83994 20.616C1.43194 18.984 0.727938 16.984 0.727938 14.616C0.727938 12.312 1.46394 10.344 2.93594 8.712C4.43994 7.048 6.47194 5.896 9.03194 5.256V0.503998H16.7599V4.872C19.1279 5.128 21.3839 5.752 23.5279 6.744V14.232C20.7119 12.76 17.8799 12.024 15.0319 12.024C13.5919 12.024 12.4399 12.264 11.5759 12.744C10.7119 13.224 10.2799 13.928 10.2799 14.856C10.2799 15.496 10.4879 16.04 10.9039 16.488C11.3519 16.936 11.9599 17.352 12.7279 17.736C13.5279 18.12 14.7919 18.648 16.5199 19.32C18.7919 20.248 20.5519 21.176 21.7999 22.104C23.0799 23 24.0079 24.056 24.5839 25.272C25.1599 26.488 25.4479 28.008 25.4479 29.832C25.4479 32.328 24.7279 34.392 23.2879 36.024C21.8479 37.624 19.6719 38.712 16.7599 39.288V43.944H9.03194V39.576Z" fill="#FC7303"/>
</svg>
