<svg width="316" height="211" viewBox="0 0 316 211" fill="none" xmlns="http://www.w3.org/2000/svg">
<path d="M1 210.5C40.4702 126.5 90.9702 42.5 314.97 0.592056H1V210.5Z" fill="#FFE359"/>
<path d="M314.97 0.592056L315.062 1.08353L314.97 0.0920563V0.592056ZM1 210.5H0.5L1.45253 210.713L1 210.5ZM1 0.592056V0.0920563H0.5V0.592056H1ZM314.878 0.100584C202.829 21.0638 134.117 52.5648 88.4726 89.3723C42.8231 126.184 20.2913 168.269 0.547468 210.287L1.45253 210.713C21.1789 168.731 43.6321 126.816 89.1003 90.1507C134.573 53.4812 203.112 22.0282 315.062 1.08353L314.878 0.100584ZM1.5 210.5V0.592056H0.5V210.5H1.5ZM1 1.09206H314.97V0.0920563H1V1.09206Z" fill="#FFE359"/>
</svg>
